<?xml version="1.0" encoding="UTF-8" standalone="no"?>
<svg
   version="1.1"
   id="Layer_1"
   x="0px"
   y="0px"
   width="650"
   viewBox="0 0 650 650"
   enable-background="new 0 0 1024 1024"
   xml:space="preserve"
   sodipodi:docname="file(2)__.svg"
   height="650"
   inkscape:version="1.4.1 (1:1.4.1+202503302257+93de688d07)"
   xmlns:inkscape="http://www.inkscape.org/namespaces/inkscape"
   xmlns:sodipodi="http://sodipodi.sourceforge.net/DTD/sodipodi-0.dtd"
   xmlns="http://www.w3.org/2000/svg"
   xmlns:svg="http://www.w3.org/2000/svg"><defs
   id="defs5" /><sodipodi:namedview
   id="namedview5"
   pagecolor="#ffffff"
   bordercolor="#000000"
   borderopacity="0.25"
   inkscape:showpageshadow="2"
   inkscape:pageopacity="0.0"
   inkscape:pagecheckerboard="0"
   inkscape:deskcolor="#d1d1d1"
   inkscape:zoom="0.80861527"
   inkscape:cx="371.62296"
   inkscape:cy="205.90756"
   inkscape:window-width="2560"
   inkscape:window-height="1376"
   inkscape:window-x="0"
   inkscape:window-y="27"
   inkscape:window-maximized="1"
   inkscape:current-layer="g5" />




<g
   id="g5"
   transform="translate(-234.81615,-178.62405)"><path
     fill="#000000"
     opacity="1"
     stroke="none"
     d="m 498.79577,615.34705 c -6.96304,-0.35975 -13.49432,0.77478 -19.89893,-0.84803 -18.67916,-4.73278 -30.43249,-18.11065 -32.34442,-37.22363 -0.34759,-3.47491 -2.00689,-4.06091 -4.86651,-4.04419 -10.49802,0.0617 -20.99659,0.0593 -31.49488,0.0385 -7.83606,-0.0155 -11.38421,-3.2995 -11.60977,-11.08246 -0.37698,-13.01153 -0.37637,-17.34686 15.44181,-16.5755 9.14309,0.44593 18.32849,-0.0478 27.49084,0.11176 3.67779,0.0641 5.112,-1.28473 4.97494,-4.966 -0.19201,-5.1587 -0.19708,-10.3357 8.3e-4,-15.49396 0.14999,-3.90912 -1.80142,-5.03485 -5.22418,-4.71204 -11.15757,1.05249 -22.30448,0.20044 -33.45307,-0.17743 -5.54464,-0.18792 -8.53619,-2.9787 -9.23538,-8.48315 -0.0209,-0.16495 -0.0257,-0.33243 -0.0293,-0.49896 -0.33789,-15.40744 -0.76306,-18.37317 16.06485,-17.78202 8.65458,0.30405 17.33106,-0.0702 25.99326,0.0937 4.16272,0.0788 6.18497,-1.22378 5.90524,-5.74368 -0.29791,-4.81418 -0.2554,-9.67065 -0.009,-14.49066 0.199,-3.89423 -1.21848,-5.34696 -5.15781,-5.27017 -9.49481,0.18502 -18.99588,0.0391 -28.49444,0.0436 -12.33887,0.006 -14.40409,-2.08084 -14.37546,-14.59673 0.003,-1.49933 -0.0516,-3.00861 0.0949,-4.4961 0.53741,-5.45703 3.66931,-8.4154 9.18707,-8.45047 11.16449,-0.0709 22.33133,-0.11944 33.49396,0.0431 3.67804,0.0536 4.91852,-1.47903 5.23926,-4.9563 2.04272,-22.14734 19.60128,-38.87701 41.94348,-39.00927 48.15765,-0.2851 96.31933,-0.26816 144.47711,0.0116 20.74573,0.12052 39.35333,18.61664 40.12982,39.19596 0.14545,3.85546 1.53418,4.78936 5.05701,4.74139 10.99621,-0.14966 21.99597,-0.0769 32.99414,-0.031 6.26977,0.0261 9.43841,3.08218 9.88898,9.36303 1.08013,15.05573 -1.79627,18.19474 -16.67389,18.19394 -8.66535,-4.9e-4 -17.33264,0.10736 -25.99506,-0.0537 -3.82709,-0.0711 -5.45984,1.24561 -5.23541,5.23135 0.2619,4.65116 0.3894,9.35828 -0.0289,13.98649 -0.46668,5.16281 2.04577,6.31094 6.4693,6.26315 10.33038,-0.11173 20.66314,-0.0397 30.99469,0.003 7.22186,0.0299 10.25567,2.99811 10.51922,10.25913 0.0845,2.32992 0.13214,4.67214 -0.004,6.99694 -0.36902,6.28836 -3.49756,9.29032 -9.84784,9.43125 -10.98981,0.24389 -21.9809,0.52691 -32.97211,0.56006 -3.88018,0.0117 -5.35351,1.40002 -5.13317,5.32153 0.27069,4.8172 0.22241,9.66907 0.002,14.4917 -0.16852,3.68256 1.22131,5.04388 4.91418,4.99182 10.82959,-0.15295 21.66272,-0.077 32.49439,-0.0527 7.65484,0.0171 10.42071,2.8117 10.56878,10.56646 0.27863,14.60077 -2.01355,16.95343 -16.43805,16.95777 -8.99859,0.003 -17.99768,0.11236 -26.99542,0.0355 -3.05573,-0.0261 -4.33435,0.88 -4.56995,4.24151 -1.42578,20.35126 -19.87634,37.7436 -40.27441,37.80341 -44.49243,0.13049 -88.9855,0.0532 -133.97815,0.0604 m 119.49744,-24.56446 c 3.99987,-0.0107 8,0.007 11.99951,-0.0375 12.23755,-0.13495 19.10864,-7.02704 19.15362,-19.2674 0.0392,-10.66607 0.006,-21.33246 0.005,-31.99872 -0.002,-32.33215 0.0294,-64.66433 -0.0196,-96.9964 -0.0214,-14.1235 -7.12458,-21.18945 -21.24945,-21.19625 -45.83161,-0.0222 -91.66324,-0.0227 -137.49482,0.0213 -13.16491,0.0127 -20.53976,7.33056 -20.54745,20.31295 -0.0256,43.33173 0.12765,86.66416 -0.10852,129.9946 -0.0525,9.63599 6.40448,19.39319 19.26929,19.27429 42.6611,-0.3944 85.32833,-0.12591 128.9924,-0.10687 z"
     id="path1"
     style="fill:#ffffff;fill-opacity:1" /><path
     fill="#000000"
     opacity="1"
     stroke="none"
     d="m 495.26442,702.16773 c 8.18647,16.24456 14.66773,32.92492 24.00058,48.16925 5.74689,9.38696 11.55546,18.75317 21.30719,24.7467 11.37369,6.99048 23.81525,5.91406 33.41059,-3.47614 11.48736,-11.24182 19.05884,-25.14856 25.93823,-39.46692 9.37061,-19.50335 17.41205,-39.69659 29.69251,-57.69488 8.12017,-11.90088 17.664,-22.28638 31.90393,-26.81061 22.46795,-7.1383 40.63665,0.58002 56.42419,16.6286 11.87238,12.06879 20.73065,26.48114 31.35571,39.51306 5.70862,7.0019 11.83039,13.5445 19.44043,18.55469 15.16101,9.98139 31.7652,11.51581 46.64417,-0.59845 3.37768,-2.75 7.03192,-5.31286 11.71564,-4.74884 5.24597,0.63159 8.85754,3.56635 10.6972,8.57489 1.72009,4.68317 0.0144,8.67291 -3.17517,11.82685 -9.78284,9.6734 -21.56903,15.41271 -35.30628,16.95068 -28.19329,3.15637 -48.42126,-10.69049 -65.72528,-30.79724 -8.81884,-10.24719 -16.13373,-21.63324 -24.49005,-32.23133 -4.8739,-6.18151 -10.11169,-12.00286 -16.6687,-16.41912 -11.72198,-7.89478 -23.85699,-6.857 -34.05762,2.89624 -7.94555,7.59698 -13.33838,17.04907 -18.20282,26.71618 -8.38305,16.65937 -16.12799,33.64057 -24.55578,50.27643 -6.56598,12.96075 -14.21308,25.26215 -25.24262,35.09155 -10.36035,9.23304 -22.35016,14.67621 -36.28702,14.23816 -15.15423,-0.47632 -27.88589,-6.92413 -38.44589,-17.78027 -13.47369,-13.85144 -21.89212,-30.87799 -30.4165,-47.87366 -8.65247,-17.25116 -15.77399,-35.31201 -26.93012,-51.24926 -3.75348,-5.36213 -7.94711,-10.27161 -13.63046,-13.72687 -9.27502,-5.63898 -19.91235,-4.87805 -28.24185,2.1416 -10.89652,9.18298 -17.68723,21.56866 -25.67853,33.02014 -9.17834,13.15253 -18.88312,25.78735 -32.30014,35.09357 -22.63,15.69635 -52.23977,14.30261 -71.44643,-3.56336 -3.52244,-3.27661 -6.41722,-6.89361 -5.73915,-12.1192 1.3216,-10.18518 11.64884,-14.43744 19.75718,-7.98578 5.40637,4.30176 10.92859,8.24597 17.85665,9.55304 10.18128,1.92084 19.06946,-1.37329 27.07126,-7.35235 12.77814,-9.54822 21.70429,-22.4582 30.25464,-35.61091 6.0965,-9.37805 12.49326,-18.47058 20.41742,-26.43518 20.08261,-20.18524 51.04831,-19.67895 70.40589,-0.57873 12.32968,12.16589 20.7875,26.7525 28.247,42.52747"
     id="path2"
     sodipodi:nodetypes="cssssssssssssssssssssssssssssssssscsssc"
     style="fill:#ffffff;fill-opacity:1" /><path
     fill="#000000"
     opacity="1"
     stroke="none"
     d="m 703.71796,224.70737 c 9.87128,7.17491 18.97388,14.71525 27.23908,23.20869 6.18261,6.35336 6.40741,13.79646 0.83752,19.52123 -5.10681,5.24893 -12.98877,5.18496 -19.25677,-0.34082 -24.91736,-21.96689 -52.89038,-38.79328 -84.45978,-49.20009 -20.914,-6.89431 -42.42749,-10.31629 -64.60864,-10.77201 -41.95734,-0.86206 -80.59867,9.81137 -116.61814,30.84926 -14.14425,8.26123 -27.02051,18.26282 -39.38363,28.9639 -6.71625,5.81332 -14.28281,5.91086 -19.61948,0.4223 -5.55475,-5.71286 -5.42441,-13.72935 0.94821,-19.991 17.23621,-16.93595 36.96811,-30.46417 58.26196,-41.77841 23.89881,-12.69835 49.41947,-20.61041 76.06916,-24.55667 18.77157,-2.77969 37.70123,-2.93229 56.72021,-1.58334 40.57849,2.87813 77.61456,15.94774 111.9903,37.22049 3.96063,2.45097 7.72607,5.21739 11.88,8.03647 z"
     id="path3"
     style="fill:#ffffff;fill-opacity:1" /><path
     fill="#000000"
     opacity="1"
     stroke="none"
     d="m 657.45898,275.05756 c 9.62171,6.35223 18.84864,12.64859 26.56885,20.80865 4.44043,4.69342 5.16998,10.26941 2.51721,15.65872 -2.53833,5.15683 -7.60119,8.03485 -13.40905,7.792 -3.40717,-0.14243 -5.88715,-1.93848 -8.34394,-4.02466 -22.40497,-19.02515 -48.12732,-31.72714 -76.78491,-37.51825 -24.26385,-4.90323 -48.62051,-3.33487 -72.4733,3.90081 -22.65493,6.87235 -42.73608,18.25614 -60.47354,33.9014 -6.10928,5.38867 -13.99041,5.09803 -19.21051,-0.40731 -5.76642,-6.08152 -5.82132,-13.32221 0.33875,-19.52097 15.85769,-15.95709 34.84704,-27.20862 55.50552,-35.65235 24.01105,-9.81401 49.07416,-14.42248 75.03061,-13.20735 32.53448,1.52307 62.79797,10.62606 90.73431,28.26931 z"
     id="path4"
     style="fill:#ffffff;fill-opacity:1" /><path
     fill="#000000"
     opacity="1"
     stroke="none"
     d="m 494.72122,366.24368 c -6.84448,-1.43686 -11.33123,-5.03851 -12.67312,-11.64737 -1.32724,-6.53683 2.00076,-11.17215 6.89773,-14.96539 19.38385,-15.01498 41.08884,-23.2164 65.82148,-24.1066 28.35885,-1.02075 53.43869,7.14264 75.72805,24.39545 7.90754,6.12073 9.53485,13.73917 4.53199,20.16739 -5.58637,7.17798 -14.54468,8.19555 -22.07538,2.04211 -16.34113,-13.35272 -35.18543,-19.43887 -56.00958,-18.67309 -18.65717,0.68609 -36.10819,5.65142 -50.53788,18.39862 -3.23181,2.85495 -6.76098,4.85354 -11.68329,4.38888 z"
     id="path5"
     style="fill:#ffffff;fill-opacity:1" /></g>
</svg>
